<svg width="24" height="24" viewBox="0 0 24 24" fill="none" xmlns="http://www.w3.org/2000/svg">
<g clip-path="url(#clip0_146_3636)">
<path d="M12.4933 8.72546C13.2642 5.53072 15.9522 4.58679 18.22 6.07195C19.1299 6.66794 19.5715 7.61724 19.5896 8.70506C19.5993 9.32361 19.7318 9.63932 20.399 9.88631C22.0745 10.4984 23.3511 11.6109 23.9071 13.3957C24.1273 14.1034 23.9723 14.4814 23.2816 14.7326C22.6978 14.9474 22.2028 15.1923 21.7847 15.7099C21.1432 16.5013 20.2322 16.5475 19.2069 15.9354C18.6177 15.5842 18.0019 15.7904 17.3999 15.7367C17.3539 15.7367 17.293 15.8065 17.2523 15.8559C16.4868 16.8224 14.9065 16.9298 13.9945 16.0514C13.8555 15.9171 13.6737 15.7754 13.6278 15.6035C13.3508 14.6521 12.4238 14.9592 11.824 14.6371C11.7845 14.6156 11.6957 14.6704 11.6369 14.7026C10.4234 15.3759 9.2205 15.0623 8.46351 13.8736C8.42068 13.8176 8.38478 13.7567 8.35659 13.6921C8.15037 13.0413 7.76214 12.4639 7.23821 12.0287C6.82763 11.6818 6.93134 11.3843 7.34513 10.9816C8.63458 9.72093 10.202 9.0648 11.9427 8.76949C12.1148 8.73835 12.2945 8.74049 12.4933 8.72546ZM7.29593 11.2705C8.31381 12.1178 9.44183 12.7299 10.6265 13.2249C13.1926 14.2988 15.8656 14.7155 18.6455 14.6618C20.1986 14.6401 21.7393 14.3819 23.2153 13.8961C23.613 13.764 23.7499 13.6137 23.5724 13.1756C22.8977 11.5282 21.6222 10.5661 20.0291 9.95396C19.8954 9.90513 19.7489 9.90513 19.6153 9.95396C18.3911 10.4845 17.1027 10.5371 15.8079 10.4501C14.7258 10.3781 13.6278 10.173 12.8141 9.42239C12.4025 9.04225 12.0902 8.96063 11.5899 9.05513C9.97455 9.35863 8.48237 10.1285 7.29593 11.2705ZM19.3426 9.54159C19.5287 7.70958 18.745 6.33827 17.2449 5.7906C15.8667 5.28803 14.2586 5.76482 13.5091 6.89882C12.7863 7.99416 12.5757 8.61699 12.8344 8.8962C12.967 7.67199 14.4478 6.13209 15.6635 5.95382C17.4469 5.69395 18.7161 6.45209 19.1234 8.05752C19.24 8.51498 19.2657 8.99607 19.3426 9.54159ZM17.0513 15.6959L13.7005 15.189C14.033 16.017 14.6521 16.3016 15.3877 16.3585C16.0228 16.4079 16.644 16.3392 17.0513 15.6959ZM11.4166 14.5265L8.31596 13.0059C8.56829 14.3965 10.6564 15.4242 11.4177 14.5265H11.4166ZM19.3619 15.7593C20.5263 16.264 21.2405 16.1276 21.7943 15.3093L19.3619 15.7593ZM11.9844 14.4137C12.0026 13.9477 11.6914 13.7522 10.7794 13.619C10.7484 14.0282 10.7484 14.0282 11.9887 14.4137H11.9844ZM15.069 15.1504C15.1214 14.7047 14.589 14.4878 13.632 14.6006C14.0276 15.1815 14.636 14.9474 15.0733 15.1504H15.069ZM20.5102 14.8626C19.5533 14.8626 19.5533 14.8626 19.6794 15.3856C20.5059 15.3512 20.569 15.3168 20.5145 14.8626H20.5102ZM16.9818 15.3566C17.9527 15.4725 17.9976 15.4554 17.9206 14.9979C16.9583 14.9238 16.9583 14.9238 16.9829 15.3566H16.9818ZM7.90218 12.3218L8.88478 13.0789C8.99384 12.6322 8.56936 12.281 7.90325 12.3218H7.90218Z" fill="white"/>
<path d="M19.1383 11.0795C19.4986 11.0591 20.2171 11.7657 20.1123 11.9945C20.0579 12.0782 19.9849 12.1481 19.899 12.1986C19.8131 12.2491 19.7166 12.2789 19.6173 12.2855C19.2548 12.2747 18.8785 11.6991 18.9587 11.3373C18.9833 11.2256 19.0976 11.1343 19.1383 11.0795Z" fill="white"/>
<path d="M15.4313 11.1649C15.4046 11.5944 15.6334 12.0959 15.056 12.2549C14.9491 12.2849 14.6283 11.9714 14.5963 11.7878C14.5321 11.3442 14.839 11.1295 15.4313 11.1649Z" fill="white"/>
<path d="M11.3675 10.0671L10.8832 10.2701L11.3023 10.807C11.0703 10.8897 10.8853 10.9906 10.6918 11.0111C10.5774 11.0239 10.3796 10.9359 10.3464 10.8446C10.3005 10.7243 10.3272 10.4913 10.4138 10.4237C10.6961 10.227 10.9899 10.0477 11.2938 9.88672L11.3675 10.0671Z" fill="white"/>
</g>
<defs>
<clipPath id="clip0_146_3636">
<rect width="23.5" height="23" fill="white" transform="translate(0.5 0.5)"/>
</clipPath>
</defs>
</svg>
