<svg width="30" height="35" viewBox="0 0 30 35" fill="none" xmlns="http://www.w3.org/2000/svg">
<path d="M11.8634 26.0074C11.7281 25.9042 11.5835 25.7024 11.4575 25.7133C9.46063 25.8838 7.95521 24.9624 6.59754 23.6201C5.94902 22.9771 5.36583 22.3059 5.50891 21.35C5.66334 20.177 5.90402 19.0172 6.22896 17.88C6.69551 16.3375 7.61618 15.053 8.79346 13.9579C8.95683 13.8112 9.09364 13.637 9.19781 13.4432C7.85724 14.1504 7.08431 15.3785 6.3316 16.6113C5.42026 16.2186 5.28652 15.9855 5.6411 15.136C6.08588 14.0659 6.57421 13.0177 7.60219 12.3418C7.94122 12.1181 8.1916 12.14 8.46376 12.3935C8.9412 12.8393 9.37043 13.1757 9.47463 14.0111C9.65348 15.4348 10.7825 16.3672 12.0516 16.885C13.4034 17.4271 14.8009 17.846 16.2273 18.1366C16.8602 18.2696 17.5771 17.9958 18.2568 17.9082L18.2241 17.6751L16.98 17.5891L17.0048 17.3419C17.8291 17.2277 18.6658 17.1666 19.476 16.9867C21.35 16.569 22.8555 15.5271 24.0949 14.0721C24.2209 13.9235 24.392 13.681 24.5273 13.6904C25.6004 13.7686 25.8212 12.9082 26.1431 12.2089C26.5335 11.3625 26.7123 10.4269 26.1431 9.62436C25.7388 9.04863 25.5879 8.44631 25.42 7.80175C24.4868 4.24729 22.0903 2.15873 18.6564 1.30296C15.2568 0.455022 12.2398 1.27324 9.79189 3.88902C9.66047 4.04176 9.49157 4.15719 9.30201 4.22382C7.94433 4.59147 6.87281 6.35462 7.20873 7.70163C7.22622 7.80393 7.27081 7.89958 7.33781 7.97853C8.48709 9.00795 7.69083 10.5802 8.47309 11.7098C7.35802 11.1622 5.67376 8.83274 5.75307 7.60932L4.83551 7.28078C5.05168 6.7958 5.27874 6.31864 5.47781 5.83053C5.60222 5.51763 5.83394 5.15624 5.75618 4.89185C5.63021 4.4757 5.36738 3.98446 5.01747 3.78264C4.55091 3.51512 4.23055 3.97038 4.02371 4.38183C3.87596 4.67438 3.75621 4.98102 3.52294 5.51137C3.3472 5.07332 3.19946 4.83083 3.15902 4.57269C3.1077 4.24103 3.17613 3.89371 3.13725 3.55892C3.0486 2.79233 2.41565 2.41217 1.68782 2.66404C0.0377664 3.23507 -0.562536 5.79298 0.613185 7.24793C0.671525 7.33458 0.742269 7.41207 0.823131 7.47791C1.82778 8.15376 1.85889 9.14406 1.94131 10.2564C2.15904 13.1929 3.70645 15.4191 5.98479 17.0837C5.71264 18.2884 5.44981 19.4852 5.16366 20.682C5.10453 20.8722 5.00594 21.0477 4.87439 21.1967C3.63802 22.7612 2.92574 24.565 2.88531 26.5331C2.86665 27.4906 2.68003 28.2055 2.06573 28.9173C1.4141 29.673 1.28036 30.6101 1.78735 31.5034C2.26479 32.3482 3.02216 32.8379 4.03615 32.7112C5.11389 32.5751 5.8075 31.9211 6.12632 30.9011C6.31605 30.2925 6.69396 29.9139 7.1543 29.4931C7.80281 28.897 8.25226 28.085 8.7297 27.4421L12.1184 27.9114C12.1744 27.4248 12.1869 26.7396 12.3424 26.0904C12.641 24.8388 13.3579 23.8876 14.6192 23.484C14.7652 23.4476 14.9173 23.4435 15.065 23.4722C15.2127 23.5008 15.3524 23.5614 15.4745 23.6498C16.1759 24.2897 16.8975 24.6307 17.8524 24.2599C17.9609 24.2395 18.0727 24.2452 18.1786 24.2765C18.2846 24.3077 18.3817 24.3637 18.4621 24.4398C19.1961 25.2518 19.1152 26.2343 18.9924 27.2011C18.6393 26.6739 18.347 26.0919 17.9193 25.6367C17.5289 25.2252 16.9862 24.9546 16.5196 24.6213C16.487 24.6761 16.4543 24.7308 16.4201 24.7856C16.966 25.2753 17.5943 25.6992 18.039 26.2687C19.0188 27.5281 18.8446 28.9283 18.2925 30.3144C17.56 32.1417 16.5274 33.7124 14.5212 34.3241C13.4419 34.6527 12.4139 33.8986 12.5104 32.7831C12.5679 32.1261 12.8976 31.4925 13.1044 30.8495C13.1542 30.7462 13.2055 30.6445 13.26 30.5366C13.3051 29.5118 13.3019 28.4824 13.4046 27.464C13.5881 25.6351 14.4077 25.3269 15.8929 25.05C16.008 25.0281 16.1184 24.9874 16.2319 24.9577L16.2552 24.7183C15.9691 24.6761 15.6752 24.5619 15.3999 24.601C14.7947 24.6791 14.2308 24.9521 13.7927 25.3794C13.3545 25.8066 13.0656 26.365 12.9691 26.9712C12.8541 27.6767 12.8976 28.4073 12.8618 29.127C12.8555 29.4933 12.7925 29.8565 12.6752 30.2033C12.6146 29.8404 12.5321 29.4806 12.501 29.116C12.4699 28.7765 12.501 28.4308 12.3222 28.0866C12.3222 28.775 12.3346 29.4618 12.3222 30.1486C12.3113 30.6179 12.3564 31.1092 12.218 31.5378C11.6846 33.1899 12.2335 34.526 13.7187 34.8529C14.7638 35.0829 15.6114 34.54 16.3703 33.8892C17.9566 32.5406 18.8042 30.7916 19.0499 28.7265C19.1339 28.035 19.2241 27.3435 19.3454 26.6583C19.5678 25.4208 19.1805 24.4132 18.2568 23.5919L19.1541 21.6144C21.1115 21.8954 22.9589 22.6969 24.5055 23.9361C24.2287 24.335 23.9534 24.7527 23.6595 25.1564C23.3205 25.6257 23.182 26.1811 23.6377 26.5409C23.8772 26.7302 24.4884 26.6739 24.7994 26.4956C25.4308 26.1357 25.8181 26.4048 26.2224 26.8084C27.3002 27.8832 28.3997 27.6157 29.3204 26.6645C30.1104 25.8432 30.227 25.2064 29.5894 24.2599C29.2784 23.7984 28.8802 23.2634 28.4012 23.0772C27.6065 22.7643 27.4495 22.1933 27.2115 21.5002C26.5444 19.5587 25.0731 18.3181 23.3236 17.3857C22.6719 17.0368 21.9721 16.7787 21.3018 16.4783C21.2676 16.5581 21.235 16.6347 21.2007 16.7192C21.7388 16.9382 22.2723 17.1666 22.8135 17.3747C23.1618 17.5077 23.28 17.6876 23.1556 18.085C22.7944 19.3646 22.0932 20.521 21.1276 21.4298C20.5476 21.9696 19.9752 21.3657 19.3998 21.3328C19.319 21.3328 19.2163 20.7712 19.2163 20.4708C19.2163 19.4304 19.249 18.3916 18.6844 17.4404C19.0484 19.4867 18.9955 21.4674 18.0764 23.1523C16.9566 23.0647 15.9504 22.8097 15.0049 22.9552C13.459 23.193 12.5166 24.2897 12.0049 25.7603C11.964 25.8424 11.9116 25.9183 11.8494 25.9855C11.8261 26.4455 11.8027 26.907 11.781 27.3544C9.0143 27.9286 7.20873 26.0387 6.46379 24.0284C8.02831 25.5741 9.79345 26.2437 11.8634 26.0074ZM7.37824 28.4089L7.48089 28.6968C6.37204 27.3075 5.03147 26.3016 3.33476 25.7587C3.66216 25.7648 3.98634 25.8251 4.29431 25.937C5.57889 26.3297 6.40936 27.3451 7.35025 28.2024C6.48712 26.6504 5.08279 25.8213 3.3783 25.2925C3.57426 24.6886 3.74066 24.1285 3.94439 23.5825C3.98482 23.4746 4.18856 23.3338 4.28187 23.3572C4.98637 23.5262 5.70797 23.5591 6.1372 24.3835C6.56643 25.208 7.19162 25.973 7.82147 26.6802C8.40622 27.3357 8.25537 28.1054 7.37824 28.4089ZM17.1884 1.4375C19.6004 1.55015 22.2723 2.75166 24.039 5.50511C26.1462 8.79049 25.4651 12.5655 22.8415 14.7933C19.9099 17.2824 16.5538 17.5061 13.1075 15.9385C9.48085 14.288 7.37824 10.1829 8.73747 6.3953C9.78722 3.46975 12.8727 1.4375 17.1884 1.4375ZM27.4728 22.7659C28.0264 23.2008 28.6625 23.5966 29.1648 24.1191C29.9129 24.9014 29.8569 25.7884 29.1322 26.5081C28.3297 27.3059 27.2411 27.4467 26.5304 26.724C25.8834 26.0638 25.3018 25.7603 24.4635 26.3626C24.1727 26.5722 23.8088 26.5738 23.6859 26.1029C23.5864 25.7321 24.5724 23.9799 24.9301 24.0159C25.9783 24.1301 26.6361 23.4636 27.4728 22.7659ZM2.19481 8.2883C1.75247 7.91118 1.32943 7.51173 0.92733 7.09149C-0.173741 5.83991 0.341027 3.42751 1.7889 2.93939C2.41098 2.72819 2.79822 2.98476 2.83243 3.64184C2.84954 3.97976 2.75468 4.34741 2.85887 4.65092C2.98018 5.00762 3.26167 5.30956 3.48095 5.63497C3.68779 5.38778 3.89774 5.14216 4.10302 4.89028C4.14968 4.83083 4.15745 4.73384 4.21033 4.6869C4.47316 4.43972 4.7422 4.20191 5.00969 3.95942C5.16521 4.33489 5.51979 4.75417 5.44514 5.07489C5.27407 5.80862 4.90394 6.49699 4.5929 7.19474C4.55403 7.28548 4.40006 7.33241 4.2912 7.37935C3.59759 7.67972 2.90864 7.97541 2.19481 8.2883ZM4.76086 15.4848C4.30675 14.8059 3.92884 14.2896 3.6038 13.7436C3.07349 12.8581 3.09059 12.2104 3.88063 11.6144C4.55558 11.1043 5.39538 10.8087 6.18075 10.4582C6.27319 10.4385 6.36896 10.4414 6.46011 10.4664C6.55126 10.4914 6.63516 10.538 6.70485 10.6021C7.03299 10.9448 7.31137 11.3374 7.62863 11.7348C6.14653 12.5124 5.28029 13.7389 4.76086 15.4848ZM23.7139 17.7862C24.336 18.3181 24.9223 18.7749 25.4526 19.2865C25.5238 19.3791 25.5751 19.4857 25.6032 19.5993C25.6314 19.713 25.6357 19.8313 25.6159 19.9467C25.4604 20.9214 24.7699 21.5112 24.0203 22.029C23.0312 22.7095 22.5242 22.6548 21.532 21.8068C22.7668 20.804 23.2878 19.3866 23.7139 17.7862ZM6.07033 9.85277C5.42337 10.1156 4.76864 10.2846 4.22588 10.635C3.68312 10.9854 3.20723 11.5283 2.71735 11.9726C2.63804 11.7286 2.51984 11.4188 2.43431 11.1012C1.9071 9.17066 3.05638 7.55613 4.86817 7.70475C5.04857 7.71883 5.32384 7.80801 5.37672 7.93786C5.65199 8.6012 5.86816 9.27861 6.07033 9.85277ZM23.6984 23.0475L26.2535 20.3003C27.0482 21.2389 27.3188 22.3528 26.8367 22.891C25.8943 23.9423 25.0094 23.9611 23.6984 23.0475ZM3.14814 26.1764C4.97703 26.6536 6.30205 27.4984 7.25072 29.0316L6.35804 29.6229C5.64421 27.9708 4.69866 27.4327 3.42652 28.024C3.33942 27.4514 3.257 26.9054 3.14814 26.1827V26.1764ZM2.7189 29.4336L5.05168 31.1092C4.45294 31.8523 3.63646 32.0072 2.88531 31.4221C2.22902 30.9308 2.19325 30.2659 2.7189 29.4399V29.4336ZM3.66446 28.376C4.04548 27.8034 4.54003 28.0553 4.97237 28.2446C5.5649 28.5059 5.96925 28.9502 5.95991 29.6636C5.00503 29.8091 4.22744 29.3726 3.66446 28.3823V28.376ZM24.7777 13.2743C25.1229 12.0946 25.4728 10.9041 25.801 9.7808C26.4573 10.8431 25.8445 12.9926 24.7777 13.2743ZM7.80436 7.9363C7.18229 6.96007 7.97543 4.91062 9.03918 4.63684C8.64727 5.70224 8.23048 6.81614 7.80436 7.9363ZM14.2568 17.1948L14.0235 17.4467L11.3346 16.1325L11.4606 15.7915C12.3688 15.671 12.9971 16.5221 13.8152 16.7192C13.9971 16.7614 14.1184 17.0305 14.263 17.1948H14.2568ZM3.20101 28.825L5.54779 30.3707C5.41249 31.0716 4.83085 30.6273 4.42806 30.4536C3.54626 30.0704 3.0035 29.1708 3.20723 28.825H3.20101ZM6.00035 29.8795C5.94902 31.0794 5.14655 32.1042 4.30209 32.2497C3.36897 32.4061 2.59138 32.0854 2.28034 31.3939C3.63802 32.4186 5.00503 32.3811 6.00968 29.8779L6.00035 29.8795ZM5.00969 21.4423C5.21653 22.1761 5.37516 22.7408 5.54312 23.3416L4.14345 22.9724L5.00969 21.4423ZM14.4015 17.5186C14.3766 17.4498 14.3533 17.381 14.3284 17.3106C14.4746 17.1964 14.6394 16.968 14.7654 16.9883C15.417 17.0947 16.0593 17.2636 16.7031 17.4107L16.6238 17.758L14.4015 17.5186ZM17.8555 23.7343C16.8929 24.2396 16.2008 24.019 15.6581 23.0866L17.8555 23.7343ZM10.9832 15.9291L9.93497 14.4101C11.2647 15.1078 11.4186 15.3425 10.9832 15.9229V15.9291ZM5.09212 15.6163L4.90239 15.5083C5.37412 14.6228 5.84431 13.7363 6.31294 12.8487L6.49489 12.9457C6.02626 13.8322 5.55867 14.7198 5.09212 15.6084V15.6163Z" fill="white"/>
<path d="M13.3808 30.5285C13.3296 30.6283 13.2785 30.7281 13.2257 30.8356C13.1389 31.1427 13.0552 31.4575 12.9683 31.7677C12.7497 32.5463 13.0505 33.4385 13.6785 33.873C14.1763 34.217 14.9872 34.0911 15.6602 33.5659C17.5442 32.0979 18.5908 30.229 18.4993 27.8043C18.459 26.7125 17.3379 25.6391 16.1269 25.6545C14.7872 25.6744 14.0445 26.7017 13.9778 27.6938C13.9189 28.6474 14.0336 29.6793 13.3808 30.5285ZM18.2869 28.05C18.271 29.1181 17.9917 30.1661 17.4733 31.1028C16.955 32.0395 16.2133 32.8366 15.3128 33.4246C14.415 34.0174 13.4227 33.5782 13.2598 32.5555C13.2138 32.2284 13.2678 31.8952 13.4149 31.5988C14.1034 30.3058 14.2832 28.9207 14.336 27.4864C14.3425 27.1664 14.4509 26.8565 14.6459 26.6012C14.8408 26.3458 15.1122 26.1579 15.4214 26.0645C16.8511 25.5516 18.1877 26.4699 18.29 28.05H18.2869Z" fill="white"/>
<path d="M9.81299 18.3539L8.18031 17.2432C7.88437 17.7531 7.58414 18.2704 7.28962 18.7803C7.54268 19.4139 8.10311 19.9074 8.57633 19.73C9.04955 19.5526 9.39838 18.8489 9.81299 18.3539Z" fill="white"/>
<path d="M15.981 20.8382C16.8168 21.0151 17.1219 20.7095 17.0907 20.026C17.0768 19.7044 17.1375 19.3827 17.0699 19.0788C17.03 18.9051 16.8046 18.6494 16.6572 18.6445C16.4839 18.6445 16.1666 18.8456 16.1371 18.9951C16.0417 19.5854 16.0279 20.1949 15.981 20.8382Z" fill="white"/>
<path d="M17.3579 18.7192C17.2724 19.2609 17.187 19.7514 17.1186 20.242C17.0503 20.7325 17.1938 21.2167 17.8022 21.1639C18.05 21.1416 18.3149 20.6846 18.455 20.373C18.5576 20.1509 18.4687 19.8537 18.4773 19.59C18.5029 18.8726 18.2414 18.4683 17.3579 18.7192ZM18.1286 20.9466C17.0263 20.7133 17.5715 20.0071 17.5168 19.5421C17.4946 19.3679 17.7646 19.1634 17.9013 18.9732L18.1286 19.0979V20.9466Z" fill="white"/>
<path d="M7.28942 20.1212C8.62292 21.2112 9.91132 20.3587 10.3735 18.6445C9.61499 19.6204 9.01105 20.8839 7.28942 20.1212Z" fill="white"/>
<path d="M10.6425 18.365C10.708 17.905 10.5006 17.5892 10.0405 17.3696C9.63102 17.1814 9.24639 16.9407 8.89579 16.6532C8.46536 16.2861 7.94915 16.3118 7.57018 16.7974C8.88175 16.7028 9.72858 17.5267 10.6425 18.365Z" fill="white"/>
<path d="M7.57031 17.2432C6.26722 18.2418 6.09223 19.2565 7.08445 20.3273C6.58927 19.218 6.76612 18.2033 7.57031 17.2432Z" fill="white"/>
<path d="M16.2547 3.50922C13.5811 3.57457 11.3743 4.49102 10.1029 6.96033C9.01613 9.06709 9.51458 11.5473 11.3333 13.4813C13.7672 16.0704 18.2312 16.615 21.2092 14.6872C24.0422 12.845 24.6542 9.31138 22.6825 6.62113C21.3875 4.84267 18.7564 3.41586 16.2547 3.50922ZM11.1409 7.8939C11.0714 6.96033 11.3869 6.44998 12.0731 6.25859L11.1409 7.8939ZM12.5132 6.20258L12.8286 6.27415C12.7014 6.8177 12.5742 7.36021 12.4469 7.90168L12.152 7.83633C12.2729 7.28863 12.3933 6.74249 12.5132 6.19791V6.20258Z" fill="white"/>
<path d="M1.53806 5.74767L2.24268 4.06543C1.62254 4.22034 1.16024 5.26414 1.53806 5.74767Z" fill="white"/>
</svg>
