<svg width="28" height="21" viewBox="0 0 28 21" fill="none" xmlns="http://www.w3.org/2000/svg">
<g clip-path="url(#clip0_146_3659)">
<path d="M16.5849 16.4278C16.4535 18.399 15.4781 19.7584 13.7984 20.604C12.5934 21.2088 11.5695 21.1164 10.6163 20.3632C11.3482 19.4742 12.5159 18.8106 12.2572 17.384C12.2254 17.2034 12.04 17.0494 11.9085 16.8576C11.5903 17.2776 11.3343 17.6052 11.0147 18.021L10.8321 17.601C10.5241 17.7367 10.2064 17.8485 9.88161 17.9356C9.6049 17.9902 9.30606 17.9468 8.96432 17.9468C8.97954 17.881 9.00583 17.7662 9.0418 17.6066C7.54757 17.5954 6.22489 18.2478 4.83995 18.637C3.70267 18.9562 2.5654 19.2726 1.41982 19.5596C1.14311 19.6282 0.842873 19.5694 0.552327 19.5694L0.503906 19.3986L8.65026 15.7586L8.21305 15.2812L9.67546 15.0376L9.33926 14.4916H11.0936C10.9552 14.2564 10.8805 13.9792 10.7325 13.9316C9.67132 13.562 8.59491 13.2316 7.4521 12.8788C7.39399 11.2478 11.5599 9.55936 14.2149 11.4788C14.8887 10.7634 15.5556 10.0326 16.2487 9.32696C18.0598 7.48316 20.214 6.44856 22.8261 6.57596C24.4357 6.63536 25.9879 7.19671 27.2701 8.18316C27.3526 8.26271 27.4158 8.36043 27.4549 8.46872C27.494 8.577 27.5079 8.69295 27.4956 8.80756C26.7194 12.5008 24.3964 15.4184 20.5599 15.9476C19.2455 16.1254 17.9283 16.2654 16.5849 16.4278ZM26.2698 11.0602C25.0246 10.1082 24.5666 8.84117 24.7216 7.32077C23.1236 6.86857 21.5726 6.79996 20.0175 7.26336C17.5271 8.00956 15.9734 9.96956 14.3574 11.8344C14.2565 11.9906 14.2018 12.1727 14.1997 12.3594C14.0876 13.5144 14.4127 14.5322 15.2567 15.319C15.5569 15.599 16.0011 15.921 16.3636 15.8972C17.956 15.7894 19.5596 15.6578 21.1257 15.3568C23.5636 14.8878 25.1823 13.3002 26.2642 11.0602H26.2698ZM11.1434 20.3142C13.5453 21.409 16.376 18.6132 16.0592 16.3522L12.6778 17.0424C12.8922 18.0504 12.859 18.1204 11.1379 20.3142H11.1434ZM13.9686 11.8106C12.621 10.7466 11.1697 10.8712 9.74464 11.238C8.93526 11.4466 8.16463 11.882 7.85886 12.673C8.81213 12.9432 9.74741 13.0636 10.5333 13.4752C11.2596 13.856 11.7605 13.7146 12.2959 13.2708C12.8313 12.827 13.3682 12.3314 13.9631 11.8106H13.9686ZM1.83211 19.0626L1.86117 19.1732C2.04732 19.1511 2.23209 19.1184 2.41459 19.0752C4.28515 18.5152 6.14187 17.909 8.0318 17.4344C8.72358 17.2594 9.49837 17.405 10.2344 17.405C10.554 17.5128 10.6827 16.705 11.1725 17.3672C11.5211 16.992 11.6775 16.6476 11.3108 16.2038C11.1466 16.0066 11.0495 15.7611 11.0341 15.5038C11.0244 14.7058 10.5582 14.6288 9.94526 14.6974C10.2413 15.7614 9.34341 15.193 9.01275 15.4506C9.07362 15.5654 9.1428 15.6998 9.20645 15.823L1.83211 19.0626ZM14.944 16.0316C13.8178 15.2182 13.5605 14.059 13.3101 12.883C12.6916 13.2834 12.6473 13.653 13.0333 14.7184C13.4816 15.8916 13.8676 16.1884 14.944 16.0316ZM13.198 16.4012C12.8037 15.5136 12.4232 14.6582 12.0413 13.7958C11.4478 14.0212 11.3662 14.4832 11.8435 15.5906C12.2212 16.4516 12.6321 16.6714 13.2008 16.3942L13.198 16.4012Z" fill="white"/>
<path d="M19.171 11.1957C19.1686 10.952 19.2141 10.7103 19.3048 10.4845C19.3956 10.2587 19.5297 10.0535 19.6995 9.88063C19.8693 9.70779 20.0713 9.5708 20.2939 9.47763C20.5164 9.38446 20.7551 9.33696 20.9959 9.3379C21.4597 9.34407 21.9027 9.53322 22.2307 9.86507C22.5586 10.1969 22.7456 10.6452 22.7516 11.1145C22.7516 11.9853 21.8233 12.8715 20.9253 12.8589C19.9472 12.8449 19.1599 12.0987 19.171 11.1957ZM20.9959 12.4557C21.8551 12.4683 22.4943 11.8719 22.4749 11.0739C22.4517 10.6872 22.2839 10.324 22.0056 10.058C21.7273 9.79196 21.3594 9.64312 20.9765 9.6417C20.2128 9.6417 19.4436 10.4369 19.4546 11.2251C19.4532 11.9461 20.0786 12.4445 20.9959 12.4585V12.4557Z" fill="white"/>
<path d="M20.9585 12.029C20.3732 12.029 19.8682 11.5782 19.8945 11.0924C19.8974 10.9534 19.9274 10.8164 19.9829 10.6892C20.0384 10.562 20.1182 10.4472 20.2178 10.3514C20.3173 10.2556 20.4347 10.1807 20.563 10.131C20.6913 10.0814 20.8281 10.0579 20.9654 10.062C21.5188 10.062 21.9463 10.5492 21.9339 11.1638C21.9214 11.7784 21.6129 12.0374 20.9585 12.029Z" fill="white"/>
<path d="M13.7208 2.41293C13.5913 2.72668 13.3636 3.03927 13.3628 3.35247C13.362 3.66567 13.5881 3.99212 13.759 4.43446C12.8702 4.21993 12.1314 4.39268 11.5117 5.09209C11.5709 4.25131 11.5248 3.54823 10.6517 3.12793C11.4187 2.9427 11.9415 2.61658 11.803 1.608C12.4658 2.07893 12.8726 2.77514 13.6858 2.22708L13.7208 2.41293Z" fill="white"/>
</g>
<defs>
<clipPath id="clip0_146_3659">
<rect width="27" height="21" fill="white" transform="translate(0.5)"/>
</clipPath>
</defs>
</svg>
