<svg width="41" height="36" viewBox="0 0 41 36" fill="none" xmlns="http://www.w3.org/2000/svg">
<g clip-path="url(#clip0_146_3654)">
<path d="M28.2477 8.55719C28.1132 8.82025 28.1132 8.82025 27.2422 9.06842C27.0515 9.98666 27.6359 10.5413 28.2589 11.0116C29.7991 12.1743 31.4227 13.2328 32.9241 14.4426C33.9776 15.2738 34.9384 16.2152 35.7901 17.2507C36.9115 18.6442 36.9227 20.2859 36.3034 21.9139C35.4686 24.1052 33.9933 25.66 31.6931 26.3624C30.4071 26.7532 29.1785 26.5138 27.9424 26.1278C26.1672 25.5728 24.3841 25.0413 22.5932 24.5333C22.0947 24.3931 21.5564 24.3832 21.0892 24.3211C21.4518 25.155 21.939 25.9144 22.1035 26.7371C22.319 27.8142 22.3365 28.9421 22.3277 30.0465C22.3277 30.6471 21.8692 31.0392 21.2549 31.1472C20.683 31.2526 19.8194 30.7861 19.5266 30.2785C19.4195 30.1218 19.2676 30.0008 19.0905 29.9311C18.4538 29.6569 17.7847 29.4509 17.1691 29.1382C16.4215 28.7572 15.6851 29.2437 15.4645 29.9882C15.1318 31.105 15.5094 32.0431 15.7822 33.0519C16.019 33.9205 15.4084 35.2854 14.6608 35.7582C13.7574 36.3352 12.6509 35.8227 12.5425 34.7655C12.5326 34.6725 12.6584 34.5657 12.7232 34.464C12.8167 35.0038 12.9375 35.5051 13.5954 35.6527C14.1549 35.7768 14.5723 35.5733 14.8863 35.1564C15.3013 34.6054 15.5991 33.9863 15.4932 33.274C15.4234 32.8037 15.2676 32.3446 15.1505 31.8817L14.9175 31.9041C14.8166 32.6399 15.0222 33.5172 14.054 33.985L14.7916 32.496L14.1487 32.8074C14.1599 32.6362 14.1674 32.5357 14.1848 32.2701C13.3462 33.1325 12.4528 33.5246 11.3114 33.2095C11.6204 33.5383 11.9158 33.8051 12.2634 33.9329C12.6111 34.0607 12.9849 34.0371 13.4509 34.093L12.7095 34.4776C12.6759 34.4255 12.6497 34.3374 12.6073 34.3287C10.7607 33.9453 10.5501 32.4116 10.2897 30.9697C10.1651 30.3021 10.2697 29.5961 10.2697 28.9173C8.63741 29.1791 7.19199 29.9919 5.93846 31.1906C5.64066 31.476 5.29924 31.7837 4.81702 31.5306C4.66749 30.662 4.06939 30.1036 3.51116 29.5824C2.87817 29.9212 2.3162 30.2984 1.69941 30.5292C1.03651 30.7774 0.534351 31.1496 0.315047 31.8085C0.226577 32.0728 0.168013 32.5394 0.303833 32.6424C0.535598 32.8174 0.926856 32.7975 1.25706 32.8186C1.38166 32.8273 1.52496 32.7305 1.65579 32.6734C2.36355 32.3657 2.69998 32.4997 3.02022 33.2033C3.11243 33.4068 3.23454 33.5966 3.34294 33.7927L3.57097 33.7728C3.63826 33.4787 3.75912 33.1859 3.76411 32.8918C3.77408 32.1175 3.90117 31.914 4.66999 31.6509C4.15911 32.0356 3.77408 32.4364 3.94229 33.1884C3.99214 33.4092 3.60711 33.7269 3.42145 33.9999C3.21336 33.8026 2.92303 33.6425 2.81462 33.4006C2.46323 32.63 2.48691 32.6188 1.69318 32.9402C1.52122 33.0097 1.33182 33.1511 1.17856 33.1201C0.814711 33.0494 0.3923 32.9774 0.138106 32.7479C-0.0263726 32.599 -0.0151588 32.1485 0.0596042 31.8718C0.293861 31.0032 0.908163 30.5069 1.77666 30.291C2.13431 30.2039 2.46792 30.0384 2.75314 29.8066C3.03835 29.5747 3.26795 29.2823 3.42518 28.9508C4.17281 27.4754 5.0139 26.0646 6.56772 25.1451C6.36835 25.0135 6.22007 24.8398 6.04812 24.8138C5.00517 24.6537 4.2102 23.3793 4.52794 22.3891C4.63315 22.0821 4.66348 21.7546 4.61641 21.4337C4.12422 18.8043 5.86245 15.3075 8.35455 14.1237C6.64996 15.4353 5.33288 16.9951 4.95907 19.1579C4.61142 21.1793 5.06249 23.5406 6.73469 24.779C6.61881 24.269 6.49545 23.7603 6.39327 23.2466C6.0531 21.5366 6.75089 20.168 7.94959 19.0599C9.50326 17.6101 11.3893 16.5604 13.4434 16.0024C13.7562 15.9374 14.0723 15.8897 14.3904 15.8597C13.8347 16.6836 13.8646 17.4108 14.5225 18.0287C15.3349 18.7931 16.1224 18.2769 16.8825 17.891C17.8295 19.143 18.2532 20.8504 17.3984 23.1473C17.9703 22.6509 18.4725 21.688 18.8027 20.4906C19.6886 17.2805 17.3622 14.1796 15.0284 13.4288C13.1431 12.8208 11.2155 12.8543 9.36012 13.6844C9.25545 13.7316 9.14579 13.7676 9.03863 13.8085L8.9539 13.6596C9.24797 13.4996 9.52584 13.2551 9.83984 13.1943C10.8242 13.0044 11.8173 12.8084 12.8154 12.7501C14.6334 12.6446 16.2358 13.1819 17.4781 14.5866C17.5343 14.6325 17.5999 14.6656 17.6703 14.6836C17.7407 14.7016 17.8141 14.704 17.8856 14.6908C18.0776 14.6424 18.2803 14.6583 18.4623 14.7361C18.6443 14.814 18.7954 14.9494 18.8924 15.1214C19.3908 15.8833 19.7646 16.6638 19.2762 17.5857C19.2201 17.6924 19.2687 17.8538 19.2687 18.0089C20.8773 17.6689 22.496 17.5733 24.0274 17.9605C24.9407 18.1913 25.4292 17.8364 26.0821 17.4641C26.5716 17.1767 27.117 16.9965 27.682 16.9355C28.6789 16.8561 29.2421 17.68 28.7711 18.5486C28.5368 18.9817 28.0708 19.3341 27.6347 19.6034C27.2397 19.8515 26.9331 20.0005 27.1599 20.539C27.2023 20.6383 27.0104 20.9199 26.8621 20.9993C26.1718 21.3716 25.6597 20.9385 25.1463 20.5229C25.7419 20.6345 26.3064 21.2351 26.9419 20.6668C26.7562 19.9334 26.8247 19.7473 27.5487 19.4259C28.0932 19.1864 28.4795 18.8365 28.6502 18.2645C28.8334 17.6527 28.5256 17.2011 27.8876 17.1551C27.2496 17.1092 26.664 17.211 26.1506 17.6378C25.8366 17.8984 25.4765 18.1044 25.1638 18.3166C25.2377 18.8212 25.3108 19.3279 25.3831 19.8367L25.155 19.8689C25.1376 19.6716 25.1152 19.4743 25.1039 19.277C25.0653 18.5449 24.8149 18.2347 24.0697 18.1602C23.1888 18.0672 22.3003 18.0362 21.3434 17.9704C21.6088 18.6678 21.8954 19.2547 22.0511 19.8726C22.2069 20.4906 22.2355 21.1557 22.3203 21.7985L22.1408 21.8245L22.0661 21.0056H22.0075L21.929 21.7501H21.8044C21.7396 21.1818 21.6798 20.6122 21.6075 20.0451C21.5802 19.8639 21.5385 19.685 21.4829 19.5103C21.0418 18.0498 20.9446 17.989 19.3833 18.2086C19.5528 22.2204 17.4333 24.7927 13.9256 26.2867C11.4423 27.3451 8.97135 27.0635 6.68609 25.3858L5.42135 26.3897C6.20886 27.4258 6.96521 28.4235 7.72779 29.4286L10.0841 28.5662C9.87639 28.0227 9.66872 27.4783 9.46105 26.9332L9.62926 26.8637C9.70901 26.9977 9.82988 27.123 9.86227 27.267C10.1426 28.5823 11.1258 29.0662 12.3108 29.1556C14.5873 29.3355 16.7679 29.0042 18.6232 27.5424C19.0506 27.2062 19.3709 26.7309 19.7385 26.3202L19.721 26.3376C19.792 26.0708 19.8631 25.8027 19.9341 25.5372C19.9578 25.5992 19.9951 25.6935 20.0911 25.938C20.349 25.3399 20.5584 24.8547 20.7664 24.3695L20.6418 24.305L20.2979 25.0272L20.1409 24.9503C20.3291 24.5917 20.582 24.2504 20.6892 23.8682C20.8213 23.4029 20.9384 22.8892 20.8724 22.4201C20.7412 21.461 20.3186 20.5647 19.6612 19.8515C19.5681 19.7313 19.5114 19.5871 19.498 19.4359C20.4375 20.1345 20.8761 21.1371 21.2262 22.2526C22.6118 21.8357 24.0186 21.5652 24.9008 20.2226C24.8099 21.1433 22.9508 22.2303 21.2599 22.3817C21.2026 22.7403 21.144 23.1125 21.0979 23.3979C22.501 23.7838 23.8492 24.1077 25.165 24.5309C26.35 24.9106 27.4789 25.4689 28.6689 25.8276C32.3684 26.9443 35.2941 24.1586 36.043 21.2252C36.4941 19.4557 36.0318 17.9518 34.7347 16.6104C32.9578 14.7702 30.8084 13.4214 28.7947 11.8951C28.32 11.534 27.8054 11.1804 27.454 10.7151C27.1313 10.287 27.0017 9.71243 26.7774 9.1801C25.7232 8.96047 24.542 8.72966 23.3694 8.46164C23.0123 8.36634 22.6664 8.23322 22.3377 8.06457C21.3857 7.61909 21.1963 6.37327 22.0885 5.84838C23.0853 5.26145 23.8616 4.48343 24.6429 3.66198C24.8672 3.42869 25.2846 3.28971 25.6248 3.26613C28.5567 3.08497 31.4912 2.93855 34.4256 2.7884C34.7097 2.77351 34.9116 2.74249 35.0113 2.40374C35.0539 2.29824 35.1199 2.20363 35.2042 2.12695C35.2885 2.05027 35.3891 1.99346 35.4985 1.96074C36.4766 1.77709 37.0511 1.00403 37.7987 0.485347C38.7158 -0.152458 39.7213 -0.168581 40.6783 0.46302C40.3406 1.26834 40.0403 2.11089 39.6379 2.90008C39.3886 3.38154 39.5344 3.59372 39.9531 3.77737C40.2883 3.92627 40.6185 4.08386 40.9936 4.25634C40.6123 4.87677 40.0814 4.96611 39.588 4.9686C39.1257 4.9686 38.8653 5.12122 38.5912 5.48232C37.5819 6.79019 36.0841 7.35602 34.62 7.96405C34.4692 8.02733 34.311 8.07201 34.0605 8.15639C34.7783 8.55967 35.425 8.94062 36.0904 9.2893C36.7308 9.62433 37.39 9.92462 38.023 10.2311C37.6292 11.5564 36.585 11.5489 35.663 11.6792C34.5615 11.8355 33.5447 11.4695 32.5852 10.9719C31.1161 10.2051 29.6782 9.37864 28.2241 8.57829C27.8864 8.27551 27.8776 7.92683 28.2726 7.73449C28.8433 7.45778 28.9679 6.98998 28.9206 6.46757C28.8408 5.59897 28.7162 4.73036 28.5617 3.87416C28.5356 3.72774 28.2664 3.52424 28.1057 3.51927C27.3207 3.49942 26.5319 3.51927 25.7457 3.5627C25.2111 3.59248 24.7862 3.83941 24.4909 4.3978C25.1662 4.43255 25.783 4.44991 26.3973 4.50327C26.5818 4.51816 26.7587 4.62736 26.9394 4.69561C26.8497 4.88795 26.8148 5.14108 26.659 5.26268C26.4195 5.45759 26.1389 5.59602 25.8381 5.66758C25.5373 5.73914 25.2241 5.74198 24.922 5.6759C24.4485 5.58656 23.9588 5.37436 23.5065 5.43765C23.0928 5.49473 22.7016 5.82108 22.3365 6.07918C21.6736 6.54699 21.7745 7.39326 22.5134 7.72333C22.8125 7.8561 23.1177 7.9715 23.4243 8.09559C24.9918 8.68128 26.6191 8.62791 28.2477 8.55719ZM33.3565 7.51982C33.1609 6.16356 32.9989 4.97481 32.8108 3.79723C32.7609 3.48577 32.6201 3.22394 32.2027 3.25C31.0538 3.32321 29.9025 3.37409 28.8845 3.42248C29.0298 4.68486 29.1731 5.92986 29.3143 7.15749C30.5554 6.9726 31.88 6.70954 33.354 7.52479L33.3565 7.51982ZM32.7946 3.12467C33.4413 4.53057 33.5198 5.80619 33.4437 7.1029C33.4076 7.72333 33.607 7.99135 34.083 7.81018C34.8655 7.50989 35.6218 7.14384 36.3832 6.79144C36.4976 6.73893 36.587 6.64413 36.6324 6.52713C36.9252 5.49101 37.1732 4.44496 36.5389 3.44482C36.4804 3.36115 36.405 3.29063 36.3174 3.23784C36.2298 3.18504 36.1321 3.15113 36.0305 3.13832C34.9888 3.11474 33.9434 3.12964 32.7921 3.12964L32.7946 3.12467ZM35.0125 9.15776C33.7465 7.96157 31.9809 7.77668 30.594 8.77061C31.0476 9.04608 31.4912 9.31783 31.936 9.58958L31.8301 9.78937L30.2439 9.00141L30.0931 9.09448C30.1878 9.24338 30.2489 9.46673 30.3835 9.52878C31.4563 10.0388 32.5279 10.5587 33.6307 10.9967C34.7334 11.4348 35.8848 11.4745 37.0037 11.0153C37.2529 10.9161 37.4261 10.6629 37.6355 10.4805C37.5943 10.4396 37.5545 10.3974 37.5109 10.3564C36.3109 10.7349 36.3109 10.7349 35.9408 10.4383L36.6947 9.942C36.3047 9.76703 35.9196 9.42703 35.6119 9.48535C34.6362 9.67148 33.6892 10.0065 32.731 10.2845L32.6936 10.2621L35.0125 9.15776ZM7.41254 29.6035C6.74092 28.8168 6.09297 28.0624 5.45001 27.3042C5.18336 26.9903 4.92543 26.9878 4.71111 27.3402C4.33729 27.9606 3.98092 28.591 3.68436 29.1022C4.26751 29.9212 4.77092 30.626 5.30422 31.3742L7.41254 29.6035ZM15.2564 29.5353L10.514 29.3007C10.5325 29.6079 10.53 29.9159 10.5065 30.2227C10.4367 30.7513 10.7881 30.894 11.1644 30.8965C11.9661 30.9023 12.7675 30.8671 13.5655 30.791C14.8751 30.6669 15.224 30.3567 15.2564 29.5353ZM15.1131 30.6198C13.6091 31.2787 12.1301 31.5293 10.4753 30.8531C10.6834 31.5281 10.8379 32.0654 11.0186 32.5903C11.1719 33.0407 11.5843 32.9725 11.9307 32.9625C12.1077 32.9625 12.2784 32.7975 12.4578 32.7851C13.7836 32.697 14.6184 32.0691 15.0296 30.8258C15.0521 30.76 15.0857 30.6905 15.1131 30.6198ZM17.1068 28.7969C18.3454 29.5415 18.1946 29.6656 19.3011 28.8367C20.0649 28.2646 20.6717 27.4432 21.2262 26.6465C21.7247 25.933 21.5801 25.5099 20.9284 24.8634C20.1833 26.716 19.1217 27.8167 17.1056 28.7969H17.1068ZM18.6806 29.4832C19.7198 29.9596 20.7914 29.7512 21.5328 28.9471C22.1022 28.3267 22.1558 27.226 21.6574 26.3301C21.0468 27.7385 20.0051 28.7362 18.6793 29.4832H18.6806ZM28.8832 7.90946L28.9991 7.77172C29.3243 7.98639 29.6421 8.21471 29.9797 8.40829C30.1268 8.49267 30.3386 8.57705 30.4782 8.53237C31.3329 8.27179 32.1753 7.97399 32.9565 7.71092C31.6096 6.94159 29.0826 7.15998 28.178 8.25442L29.7978 9.23345C30.2726 8.75944 29.7517 8.69988 29.5636 8.5212C29.3467 8.30901 29.1112 8.11296 28.8832 7.90946ZM36.9389 1.60834C37.8959 1.73987 38.8553 1.39242 39.608 2.11709L40.378 0.57717C38.6983 -0.0221686 38.4952 0.190027 36.9389 1.60834ZM35.2306 2.77724H39.2628C39.2777 2.21761 39.1619 2.05257 38.5762 2.03272C37.7925 1.99921 37.0037 1.99301 36.2199 2.03272C35.795 2.05009 35.3951 2.22877 35.2306 2.77351V2.77724ZM22.0025 28.7113C21.3446 29.4261 20.7353 30.0651 19.7061 29.9522C20.197 30.6967 20.9521 31.0069 21.5303 30.7712C22.0748 30.5491 22.2393 29.9274 22.0025 28.7138V28.7113ZM37.3563 4.05781C38.575 4.70554 39.8659 4.79488 40.4553 4.31714C39.4746 3.85058 38.4778 3.43861 37.3563 4.05781ZM37.0673 6.2802L37.2803 6.43034L38.4716 4.86934L37.2255 4.43752C37.1657 5.06664 37.1146 5.67342 37.0635 6.2802H37.0673ZM19.1503 17.1477C19.3285 16.4801 19.0756 15.9254 18.7765 15.4254C18.6195 15.166 18.2694 15.0233 18.0065 14.8285L17.9118 14.9687L19.1503 17.1477ZM39.1008 3.34555L39.1693 3.1619C38.3793 3.09986 37.5769 3.14577 36.7071 3.13212L37.0162 3.75256L39.1008 3.34555ZM5.83753 24.5122L4.73354 22.4263C4.74973 23.3769 5.0762 24.0221 5.83753 24.5122ZM24.8074 5.45502L26.3139 5.06663C26.2977 5.0021 26.2802 4.94254 26.264 4.87429C25.8117 5.01699 25.1899 4.43999 24.8074 5.45502ZM11.8647 17.5845C11.9008 17.6565 11.9382 17.7284 11.9756 17.8004L13.5045 17.1328C13.4646 17.0447 13.426 16.9578 13.3799 16.871L11.8647 17.5845ZM12.4977 19.5326L12.692 19.6803C13.0243 19.2435 13.3541 18.8076 13.6814 18.3724C13.6091 18.3191 13.5369 18.2657 13.4634 18.2136L12.4977 19.5326ZM14.7717 19.0648L14.5225 19.0487L14.3356 20.74L14.4901 20.7599L14.7717 19.0648Z" fill="white"/>
<path d="M6.27142 23.9051C5.51257 22.4471 5.64839 21.0449 6.52063 19.7296C7.26078 18.6078 8.32366 17.8286 9.4451 17.1188C10.6251 16.3681 11.8126 15.6422 13.1833 15.291C16.1189 14.5465 18.8765 16.754 18.6285 19.7494C18.5786 20.3599 18.4466 20.963 18.3519 21.5685L18.1027 21.5375C18.155 20.8906 18.2077 20.2433 18.2609 19.5956C18.474 16.9302 16.0068 15.1595 13.9259 15.4411C12.2525 15.6682 10.736 16.3743 9.38155 17.3682C8.61694 17.9279 7.90086 18.5505 7.24084 19.2295C6.0571 20.453 5.76801 21.9309 6.21036 23.5614C6.23744 23.6747 6.25783 23.7894 6.27142 23.9051Z" fill="white"/>
<path d="M19.7435 26.3252C19.1989 26.159 19.1441 25.7234 19.3061 25.3114C19.5348 24.7562 19.8582 24.2445 20.2618 23.7988C20.1584 24.0917 20.1135 24.4193 19.9416 24.6674C19.5678 25.2035 19.402 25.7309 19.726 26.3401L19.7435 26.3252Z" fill="white"/>
<path d="M23.7548 21.0239C23.6801 20.118 23.6028 19.1849 23.5293 18.2939C23.8994 18.7816 24.024 20.1639 23.7548 21.0239Z" fill="white"/>
</g>
<defs>
<clipPath id="clip0_146_3654">
<rect width="41" height="36" fill="white"/>
</clipPath>
</defs>
</svg>
